<svg xmlns="http://www.w3.org/2000/svg" viewBox="0 0 600 663"><defs><style>.cls-1{isolation:isolate;}.cls-2{fill:#d3ebf5;}.cls-3{fill:#fff;}.cls-4{fill:#508024;}.cls-5{fill:#769c52;}.cls-6{fill:#acabab;}.cls-13,.cls-6,.cls-8,.cls-9{mix-blend-mode:multiply;}.cls-7{fill:#aac93f;}.cls-8{fill:#abaaaa;}.cls-9{fill:#d5d6d6;}.cls-10{fill:#2e353d;}.cls-11{fill:#ff7d59;}.cls-12{fill:#f91738;}.cls-13{fill:#b9ddea;opacity:0.3;}.cls-14{fill:#333e51;}.cls-15{fill:#192027;}.cls-16{fill:#007298;}.cls-17{fill:#e51f46;}.cls-18{fill:#c90e3b;}</style></defs><title>about us iocn</title><g class="cls-1"><g id="Layer_1" data-name="Layer 1"><path class="cls-2" d="M274.77,643.5H477s146.11-104.23,77.79-263.78c-40.25-89.6-92-43.88-101.13-216.23S278.49-.17,249.4,100s-37.2,108.8-117,126.63S53.23,316.18,61,373.32s-27.3,68.45-41.94,127.55C1.54,571.68,42.41,643.5,107,643.5Z"/><rect class="cls-3" x="69.59" y="588.91" width="1.81" height="3.61"/><path class="cls-3" d="M372.32,638.73h1.8v7.2h-1.8Zm0-14.41h1.8v7.21h-1.8Zm0-14.4h1.8v7.2h-1.8Zm0-14.41h1.8v7.2h-1.8Zm0-11.3a18.53,18.53,0,0,1,.29-3.25l1.78.32a16,16,0,0,0-.27,2.93v4.1h-1.8ZM69.59,574.5H71.4v7.21H69.59Zm305.89-.5a18.36,18.36,0,0,1,5.46-5.18l.94,1.54A16.32,16.32,0,0,0,377,575ZM388,566.32a18.11,18.11,0,0,1,2.33-.15h5V568h-5a16.34,16.34,0,0,0-2.1.14Zm14.52-.15h7.2V568h-7.2Zm14.41,0h7.2V568H417Zm14.4,0h7.21V568h-7.21Zm14.41,0H453V568h-7.2Zm14.28-.15a16.16,16.16,0,0,0,6.36-2.31l1,1.53a17.84,17.84,0,0,1-7.08,2.57ZM69.59,560.1H71.4v7.2H69.59ZM471.28,559a16,16,0,0,0,2.53-6.28l1.78.3a17.77,17.77,0,0,1-2.81,7ZM69.59,545.69H71.4v7.2H69.59Zm404.46-7.2h1.81v7.2h-1.81ZM69.59,531.28H71.4v7.21H69.59Zm404.46-7.2h1.81v7.21h-1.81Zm-404.46-7.2H71.4v7.2H69.59Zm404.46-7.2h1.81v7.2h-1.81ZM69.59,502.47H71.4v7.2H69.59Zm404.46-7.2h1.81v7.2h-1.81ZM69.59,493.84a18,18,0,0,1,1-6l1.71.6a16,16,0,0,0-.91,5.37v1.43H69.59ZM474.05,482.1c0-.39,0-.78,0-1.17l1.8-.13c0,.43.05.87.05,1.3v6h-1.81Zm-399.53-.65a18,18,0,0,1,6.19-4.28l.7,1.67a16.19,16.19,0,0,0-5.58,3.85Zm13.54-5.66a16.12,16.12,0,0,0,6.59-1.58l.78,1.63a18,18,0,0,1-7.32,1.76Zm379.69-6.53,1.11-1.43a18.27,18.27,0,0,1,4.86,5.74l-1.59.86A16.4,16.4,0,0,0,467.75,469.26ZM100,470.07a16.06,16.06,0,0,0,3.21-6l1.74.51a18.14,18.14,0,0,1-3.57,6.62Zm357.81-4.2H454.7v-1.81h3.12a17.78,17.78,0,0,1,4.25.51l-.42,1.75A16.44,16.44,0,0,0,457.82,465.87Zm-89.56-1.81h7.2v1.81h-7.2Zm14.4,0h7.21v1.81h-7.21Zm14.41,0h7.2v1.81h-7.2Zm14.41,0h7.2v1.81h-7.2Zm14.4,0h7.21v1.81h-7.21Zm14.41,0h7.2v1.81h-7.2ZM354,462.58l1-1.48a16.05,16.05,0,0,0,6.23,2.66l-.35,1.77A17.81,17.81,0,0,1,354,462.58ZM103.87,450h1.8v7.21h-1.8Zm242.58-.08,1.79-.21a16.13,16.13,0,0,0,2.18,6.41l-1.56.92A17.87,17.87,0,0,1,346.45,449.94ZM103.87,435.62h1.8v7.2h-1.8Zm242.45-.19h1.81v7.2h-1.81ZM103.87,421.21h1.8v7.2h-1.8ZM346.32,421h1.81v7.21h-1.81Zm-241.67-7.2a17.85,17.85,0,0,1,3.65-6.58l1.36,1.18a16.23,16.23,0,0,0-3.29,5.92Zm241.67-7.2h1.81v7.2h-1.81Zm-232-3.91a18,18,0,0,1,7.34-1.67l0,1.81a16,16,0,0,0-6.6,1.5ZM128.86,401h7.2v1.8h-7.2Zm14.41,0h7.2v1.8h-7.2Zm14.4,0h7.21v1.8h-7.21Zm14.41,0h7.2v1.8h-7.2Zm14.41,0h7.2v1.8h-7.2Zm14.4,0h7.21v1.8h-7.21Zm14.41,0h7.2v1.8h-7.2Zm14.41,0h7.2v1.8h-7.2Zm14.4,0h6.28l.88,0,.09,1.8c-.32,0-.65,0-1,0h-6.28Zm13.69-1.79a16.26,16.26,0,0,0,5.25-4.29l1.41,1.14a18.27,18.27,0,0,1-5.83,4.76Zm88.52-7h1.81v7.2h-1.81Zm-80.22-3.29a16.27,16.27,0,0,0,.52-4.12V382h1.81v2.81a18,18,0,0,1-.59,4.57Zm80.22-11.12h1.81V385h-1.81Zm-79.7-10.22h1.81v7.21h-1.81Zm79.7-4.18h1.81v7.2h-1.81Zm-79.7-10.22h1.81v7.2h-1.81Zm79.7-4.19h1.81v7.2h-1.81Zm-79.68-3.05a17.9,17.9,0,0,1,1.88-7.29l1.61.81a16.18,16.18,0,0,0-1.69,6.55Zm75.79-9.78,1.38-1.17a17.91,17.91,0,0,1,3.59,6.61l-1.73.51A16.09,16.09,0,0,0,342.43,336.16Zm-69.22-3.39a17.73,17.73,0,0,1,6.68-3.47l.47,1.74a16.23,16.23,0,0,0-6,3.12Zm57.26-2.3,0-1.8a17.85,17.85,0,0,1,7.33,1.74l-.78,1.63A16,16,0,0,0,330.47,330.47Zm-43.2-1.81h7.21v1.81h-7.21Zm14.41,0h7.2v1.81h-7.2Zm14.41,0h7.2v1.81h-7.2Z"/><rect class="cls-3" x="372.32" y="653.23" width="1.81" height="3.61"/><path class="cls-2" d="M566.89,119.29a11.85,11.85,0,0,0-3.54.53,18.43,18.43,0,1,0-35.41-10,11,11,0,0,0-16.83,9.29c0,.21,0,.42,0,.64a12.1,12.1,0,1,0-3.37,23.73h59.13a12.11,12.11,0,1,0,0-24.21Z"/><path class="cls-2" d="M61,95.87a7.48,7.48,0,0,1,2.14.32,11.13,11.13,0,1,1,21.39-6,6.64,6.64,0,0,1,10.17,5.61c0,.13,0,.25,0,.38a7.54,7.54,0,0,1,2-.29,7.33,7.33,0,0,1,7.25,6.35,4.24,4.24,0,1,1,1.29,8.28H61a7.32,7.32,0,0,1,0-14.63Z"/><path class="cls-4" d="M559,645c.9-2.34-3-3-6.64-.65C552.38,644.36,557.7,648.47,559,645Z"/><path class="cls-4" d="M565.05,637.54c-.36-2.79-3.92-2-8.08,1.17C558.28,641.12,565.42,640.4,565.05,637.54Z"/><path class="cls-4" d="M569.6,631.73c-.19-1.3-1.93-2.08-4.33-1.37-1.95.57-4.08,3.51-4.08,3.51a6,6,0,0,0,4.76.46C567.83,633.85,569.74,632.61,569.6,631.73Z"/><path class="cls-4" d="M573.28,628.51c.81-1.24-.92-2.43-2.31-2.19-.87.15-2.73,1.43-3.06,1.48C567.91,627.8,571.65,631,573.28,628.51Z"/><path class="cls-4" d="M577.27,621.14c.45-1.17-.73-3.65-3.64-1.45-2,1.55-3.41,5.25-3.47,5.34S575.67,625.21,577.27,621.14Z"/><path class="cls-4" d="M565.09,621.35a8.51,8.51,0,0,0-.49,5.4s4.18-3,4.14-5.78S566.33,618.23,565.09,621.35Z"/><path class="cls-4" d="M560.46,623.05c-1.6-.86-3.47,2-2.93,7.69C557.53,630.74,563.86,624.86,560.46,623.05Z"/><path class="cls-4" d="M553.35,629.56c-1.92-.34-3,4.22-1.48,6.58C551.87,636.14,556.4,630.1,553.35,629.56Z"/><path class="cls-4" d="M547.15,634.69c.6-1.33,2.67.18,2.82,2.09s-1.36,4.17-1.36,4.17S545.69,637.89,547.15,634.69Z"/><path class="cls-4" d="M549.86,642q-1.23,1.89-2.4,4a85.28,85.28,0,0,0-6.3,14.11l.42.13a84.45,84.45,0,0,1,6.27-14,58.67,58.67,0,0,1,7.78-11,29.76,29.76,0,0,1,10.81-7.87,10.84,10.84,0,0,0,1.45-.7l2.38-1.35-.22-.38-2.37,1.35a10.67,10.67,0,0,1-1.4.67,30.32,30.32,0,0,0-11,8A54,54,0,0,0,549.86,642Z"/><polygon class="cls-4" points="548.38 640.76 548.91 643.75 552.42 644.63 552.52 644.21 549.29 643.39 548.81 640.69 548.38 640.76"/><polygon class="cls-4" points="551.6 635.75 551.58 639.77 557.39 638.92 557.33 638.48 552.02 639.26 552.04 635.76 551.6 635.75"/><polygon class="cls-4" points="557.36 630.66 556.27 634.09 561.41 634.09 561.41 633.65 556.87 633.65 557.78 630.79 557.36 630.66"/><path class="cls-4" d="M564.52,626.29l-.52,2.1.44-.24a4.82,4.82,0,0,1,3.47-.14l.13-.42a5.5,5.5,0,0,0-3.39,0l.29-1.19Z"/><path class="cls-4" d="M552.26,644.18c2.68-1.75,5.44-1.85,6.56-.95a1.53,1.53,0,0,1,.41,1.86h0a2.18,2.18,0,0,1-1.47,1.43c-2.14.6-5.38-1.88-5.51-2l-.25-.19Zm6.56.75h0a1.09,1.09,0,0,0-.28-1.36c-.94-.76-3.37-.65-5.77.81.8.56,3.27,2.17,4.87,1.72a1.64,1.64,0,0,0,1-.71A2.47,2.47,0,0,0,558.82,644.93Z"/><path class="cls-4" d="M556.83,638.53c3.06-2.34,5.77-3.36,7.25-2.74a2,2,0,0,1,1.19,1.72c.14,1.09-.68,2-2.24,2.51-2.25.73-5.4.37-6.26-1.21l-.09-.16Zm8-1a1.58,1.58,0,0,0-.92-1.38c-1.29-.54-3.83.44-6.65,2.57.87,1.23,3.67,1.48,5.64.85a3.39,3.39,0,0,0,1.72-1.13A1.27,1.27,0,0,0,564.83,637.57Z"/><path class="cls-4" d="M561,633.74c.09-.12,2.2-3,4.19-3.6a4.58,4.58,0,0,1,3.7.22,1.9,1.9,0,0,1,.92,1.34h0c.08.5-.34,1.09-1.16,1.66a8.63,8.63,0,0,1-2.65,1.19,6.23,6.23,0,0,1-5-.5l-.18-.13Zm8.38-2h0a1.54,1.54,0,0,0-.72-1,4.15,4.15,0,0,0-3.34-.16c-1.57.46-3.31,2.58-3.82,3.23a7.09,7.09,0,0,0,7.74-1.59A.66.66,0,0,0,569.39,631.77Z"/><path class="cls-4" d="M567.87,627.58a7.47,7.47,0,0,0,.87-.45,9.16,9.16,0,0,1,2.19-1,2.67,2.67,0,0,1,2.54,1,1.32,1.32,0,0,1,0,1.52h0a2.18,2.18,0,0,1-1.56,1c-1.85.26-4-1.61-4.15-1.69l-.34-.3Zm5.23.81h0a.87.87,0,0,0,0-1,2.21,2.21,0,0,0-2.09-.81,8.82,8.82,0,0,0-2,1l-.63.35c.64.48,2.23,1.55,3.51,1.37a1.76,1.76,0,0,0,1.26-.84Z"/><path class="cls-4" d="M573.49,619.52c1.77-1.34,2.84-.93,3.31-.57a2.07,2.07,0,0,1,.67,2.27h0c-1.31,3.35-5.23,3.93-6.4,4-1,.08-1,0-1.1-.1a.24.24,0,0,1,0-.23.7.7,0,0,0,0-.13,20.16,20.16,0,0,1,1.62-3.16A8.28,8.28,0,0,1,573.49,619.52Zm3.57,1.54h0a1.63,1.63,0,0,0-.52-1.76c-.65-.5-1.64-.29-2.78.57-.8.6-2,2-3.28,5C571.61,624.86,575.76,624.38,577.06,621.06Z"/><path class="cls-4" d="M567.68,618.75c.79.14,1.27,1,1.28,2.22s-.7,2.58-2.12,4.08a16.4,16.4,0,0,1-2.11,1.87l-.25.18-.09-.29a8.71,8.71,0,0,1,.5-5.54,6.85,6.85,0,0,1,.58-1.15C566.12,619.13,566.92,618.61,567.68,618.75Zm-2.95,7.62c.9-.71,3.82-3.17,3.79-5.4,0-1-.35-1.69-.92-1.79-.9-.17-1.82,1.05-2.3,2.25A8.85,8.85,0,0,0,564.73,626.37Z"/><path class="cls-4" d="M559.07,623a1.41,1.41,0,0,1,1.49-.1h0a1.94,1.94,0,0,1,1.1,1.51c.33,2.51-3.81,6.38-4,6.55l-.33.3,0-.45c-.33-3.54.24-5.82,1-7A2.71,2.71,0,0,1,559.07,623Zm.37,5.38c1.29-1.63,1.91-3,1.79-3.92a1.5,1.5,0,0,0-.88-1.17h0a.94.94,0,0,0-1,.07c-1,.68-1.9,3.08-1.61,7A22.07,22.07,0,0,0,559.44,628.33Z"/><path class="cls-4" d="M551.72,630.25a1.67,1.67,0,0,1,1.67-.91h0a1.37,1.37,0,0,1,1.13.83c.3.78,0,2.06-1,3.78a22.89,22.89,0,0,1-1.49,2.33l-.19.24-.17-.26a6.12,6.12,0,0,1,0-6Zm2.39.09a1,1,0,0,0-.79-.57,1.28,1.28,0,0,0-1.23.72h0a5.84,5.84,0,0,0-.19,5.25C552.82,634.44,554.59,631.57,554.11,630.34Z"/><path class="cls-4" d="M548.08,634a3.12,3.12,0,0,1,2.11,2.78c.15,1.85-1.33,4.21-1.39,4.31l-.15.24-.2-.21a7.9,7.9,0,0,1-1.31-2,5.24,5.24,0,0,1-.19-4.51h0l.09-.18A1,1,0,0,1,548.08,634Zm1.67,2.82a2.71,2.71,0,0,0-1.75-2.38.54.54,0,0,0-.65.36h0c-1.16,2.55.62,5.05,1.23,5.8A7.85,7.85,0,0,0,549.75,636.8Z"/><path class="cls-4" d="M486.35,644.81c-1.19-3.11,4-4,8.83-.87C495.18,643.94,488.12,649.4,486.35,644.81Z"/><path class="cls-4" d="M478.35,634.88c.48-3.7,5.21-2.68,10.73,1.55C487.35,639.64,477.86,638.68,478.35,634.88Z"/><path class="cls-4" d="M472.3,627.17c.26-1.74,2.57-2.77,5.76-1.83,2.58.76,5.42,4.66,5.42,4.66s-2.33,1.64-6.33.62C474.65,630,472.12,628.33,472.3,627.17Z"/><path class="cls-4" d="M467.41,622.89c-1.07-1.65,1.23-3.23,3.07-2.91,1.16.2,3.63,1.9,4.08,2C474.56,622,469.58,626.22,467.41,622.89Z"/><path class="cls-4" d="M462.12,613.1c-.6-1.55,1-4.84,4.84-1.92,2.72,2.05,4.52,7,4.6,7.09S464.24,618.5,462.12,613.1Z"/><path class="cls-4" d="M478.29,613.38a11.32,11.32,0,0,1,.66,7.17s-5.55-4-5.5-7.68S476.64,609.23,478.29,613.38Z"/><path class="cls-4" d="M484.45,615.64c2.13-1.14,4.6,2.69,3.89,10.22C488.34,625.86,479.93,618.05,484.45,615.64Z"/><path class="cls-4" d="M493.88,624.28c2.56-.45,4,5.61,2,8.75C495.85,633,489.83,625,493.88,624.28Z"/><path class="cls-4" d="M502.13,631.09c-.8-1.76-3.55.25-3.76,2.79-.19,2.38,1.81,5.54,1.81,5.54S504.06,635.35,502.13,631.09Z"/><path class="cls-4" d="M498.53,640.76q1.64,2.5,3.18,5.28a113.38,113.38,0,0,1,8.37,18.73l-.56.18a112.9,112.9,0,0,0-8.32-18.64,78.43,78.43,0,0,0-10.34-14.62,39.61,39.61,0,0,0-14.36-10.45,17.21,17.21,0,0,1-1.93-.92l-3.15-1.8.28-.51,3.16,1.8a13.88,13.88,0,0,0,1.86.88A40.42,40.42,0,0,1,491.3,631.3,72.19,72.19,0,0,1,498.53,640.76Z"/><polygon class="cls-4" points="500.5 639.16 499.78 643.12 495.13 644.3 494.98 643.74 499.27 642.65 499.92 639.06 500.5 639.16"/><polygon class="cls-4" points="496.22 632.51 496.24 637.84 488.52 636.71 488.6 636.14 495.66 637.17 495.63 632.51 496.22 632.51"/><polygon class="cls-4" points="488.56 625.74 490.01 630.3 483.18 630.3 483.18 629.72 489.21 629.72 488.01 625.92 488.56 625.74"/><path class="cls-4" d="M479.06,619.94l.68,2.8-.59-.33a6.36,6.36,0,0,0-4.6-.19l-.17-.56a7.49,7.49,0,0,1,4.5,0l-.39-1.58Z"/><path class="cls-4" d="M495.68,643.92l-.32.25c-.19.14-4.49,3.44-7.32,2.64a2.9,2.9,0,0,1-2-1.9h0a2,2,0,0,1,.54-2.47c1.49-1.2,5.16-1.06,8.72,1.26Zm-8.75,1.39a2.15,2.15,0,0,0,1.26.94c2.13.6,5.41-1.54,6.47-2.29-3.18-1.93-6.42-2.07-7.67-1.06a1.44,1.44,0,0,0-.36,1.8h0A3.15,3.15,0,0,0,486.93,645.31Z"/><path class="cls-4" d="M489.46,636.35l-.12.22c-1.13,2.09-5.32,2.58-8.31,1.61-2.07-.67-3.16-1.88-3-3.33a2.68,2.68,0,0,1,1.57-2.3c2-.82,5.58.54,9.63,3.65Zm-10.54-.21a4.51,4.51,0,0,0,2.29,1.49c2.61.84,6.32.51,7.49-1.13-3.75-2.82-7.12-4.13-8.84-3.41a2.09,2.09,0,0,0-1.22,1.83A1.8,1.8,0,0,0,478.92,636.14Z"/><path class="cls-4" d="M483.89,630.07l-.24.17c-.1.07-2.49,1.71-6.57.67a11.28,11.28,0,0,1-3.52-1.58c-1.1-.76-1.65-1.54-1.55-2.2h0a2.55,2.55,0,0,1,1.22-1.79,6.14,6.14,0,0,1,4.92-.28c2.64.78,5.45,4.61,5.57,4.77Zm-11.12-2.27a9.42,9.42,0,0,0,10.28,2.12c-.68-.87-3-3.69-5.07-4.3a5.55,5.55,0,0,0-4.44.21,2,2,0,0,0-1,1.38h0A.87.87,0,0,0,472.77,627.8Z"/><path class="cls-4" d="M475.2,621.77l-.45.4c-.13.1-3.06,2.6-5.51,2.25a2.93,2.93,0,0,1-2.07-1.37h0a1.74,1.74,0,0,1,0-2,3.54,3.54,0,0,1,3.36-1.34,12,12,0,0,1,2.92,1.36,10.08,10.08,0,0,0,1.15.61Zm-7.54,1a2.28,2.28,0,0,0,1.67,1.11c1.71.25,3.82-1.18,4.66-1.82l-.83-.46a11.52,11.52,0,0,0-2.73-1.29,3,3,0,0,0-2.78,1.08,1.19,1.19,0,0,0,0,1.38Z"/><path class="cls-4" d="M469.59,613.75a25.52,25.52,0,0,1,2.15,4.2l.07.17a.27.27,0,0,1,0,.3c-.07.12-.15.25-1.46.14-1.55-.13-6.75-.9-8.5-5.36h0a2.75,2.75,0,0,1,.89-3c.63-.48,2-1,4.39.75A10.74,10.74,0,0,1,469.59,613.75Zm1.55,4.27c-1.68-4-3.3-5.81-4.36-6.61-1.51-1.14-2.82-1.41-3.69-.76a2.19,2.19,0,0,0-.7,2.34h0C464.12,617.4,469.63,618,471.14,618Z"/><path class="cls-4" d="M477.79,611.74a9.92,9.92,0,0,1,.77,1.53,11.43,11.43,0,0,1,.66,7.37l-.12.38-.32-.24a21.4,21.4,0,0,1-2.81-2.49c-1.89-2-2.84-3.82-2.82-5.42s.66-2.75,1.7-3S476.93,610.43,477.79,611.74Zm.23,1.74c-.63-1.59-1.86-3.2-3.06-3-.75.14-1.21,1-1.22,2.38,0,3,3.83,6.23,5,7.16A11.78,11.78,0,0,0,478,613.48Z"/><path class="cls-4" d="M487.27,616.55c1,1.59,1.8,4.63,1.36,9.33l-.06.59-.43-.4c-.23-.22-5.73-5.36-5.29-8.69a2.57,2.57,0,0,1,1.46-2h0a1.85,1.85,0,0,1,2,.12A3.59,3.59,0,0,1,487.27,616.55Zm.83,8.67c.38-5.14-.78-8.33-2.14-9.24a1.27,1.27,0,0,0-1.37-.09h0a2,2,0,0,0-1.16,1.56c-.16,1.24.66,3,2.37,5.21A32.26,32.26,0,0,0,488.1,625.22Z"/><path class="cls-4" d="M496.07,625.21a8.14,8.14,0,0,1,0,8l-.23.34-.25-.33a32.15,32.15,0,0,1-2-3.08c-1.26-2.3-1.7-4-1.29-5a1.83,1.83,0,0,1,1.49-1.11h0a2.22,2.22,0,0,1,2.22,1.2Zm-.25,7.29a7.73,7.73,0,0,0-.24-7v0a1.71,1.71,0,0,0-1.64-.94,1.23,1.23,0,0,0-1.05.74C492.24,627,494.59,630.76,495.82,632.5Z"/><path class="cls-4" d="M502.27,630.74l.12.23h0a7,7,0,0,1-.25,6,11,11,0,0,1-1.75,2.65l-.26.27-.2-.32c-.08-.13-2-3.27-1.85-5.72a4.17,4.17,0,0,1,2.81-3.69A1.3,1.3,0,0,1,502.27,630.74Zm-2,8.18c.8-1,3.17-4.32,1.63-7.71h0a.74.74,0,0,0-.87-.48,3.65,3.65,0,0,0-2.33,3.17C498.52,635.71,499.73,638.05,500.23,638.92Z"/><path class="cls-5" d="M536.22,657.89l-.45-.22c-3.18-1.59-22.46-11.8-33.77-31.18s-10.73-41.18-10.55-44.74c0-.31,0-.48,0-.5h0l.45.22a90.82,90.82,0,0,1,24.43,18.64,73,73,0,0,1,9.34,12.54c6.39,11,9,22.68,10,31.45a85,85,0,0,1,.55,13.29Z"/><path class="cls-3" d="M491.48,581.25s0,.19,0,.5l44.32,75.92.45.22,0-.5-44.32-75.92-.45-.22Z"/><path class="cls-6" d="M535.7,644.1c-1.29,2.85-2.48,5.1-3.34,6.64l-.31.56-.76,1.28L531,653l-.29-.41A89.91,89.91,0,0,1,520,630.66c-.26-.78-.52-1.59-.76-2.4A74,74,0,0,1,516,609.05a69.24,69.24,0,0,1,.33-8.94,73,73,0,0,1,9.34,12.54C532.09,623.6,534.68,635.33,535.7,644.1Z"/><path class="cls-7" d="M536.24,570.32h0a4.6,4.6,0,0,0-.27.42c-1.86,3-12.82,21.9-12.18,44.32s12.68,40.64,14.7,43.56l.29.4s.1-.14.27-.42c1.86-3,12.82-21.91,12.18-44.32s-12.67-40.63-14.7-43.55l-.29-.41Z"/><path class="cls-3" d="M536.24,570.32a4.6,4.6,0,0,0-.27.42l2.52,87.88.29.4s.1-.14.27-.42l-2.52-87.87-.29-.41Z"/><path class="cls-4" d="M39.53,614.36c-.33-2.64,3.86-2.33,7,1C46.52,615.38,40,618.25,39.53,614.36Z"/><path class="cls-4" d="M35.23,605.15c1.08-2.78,4.54-1.08,8,3.25C41.28,610.55,34.12,608,35.23,605.15Z"/><path class="cls-4" d="M32,598c.54-1.29,2.53-1.65,4.81-.31,1.85,1.08,3.3,4.64,3.3,4.64a6.37,6.37,0,0,1-5-.73C33.3,600.65,31.67,598.88,32,598Z"/><path class="cls-4" d="M29.06,593.77c-.51-1.48,1.57-2.26,2.93-1.66.86.38,2.45,2.16,2.78,2.3C34.77,594.41,30.1,596.77,29.06,593.77Z"/><path class="cls-4" d="M26.84,585.18c-.17-1.31,1.68-3.56,4.11-.56,1.72,2.11,2.17,6.26,2.21,6.37S27.45,589.77,26.84,585.18Z"/><path class="cls-4" d="M39.3,588.49a9.09,9.09,0,0,1-.86,5.68s-3.53-4.16-2.79-7S38.82,585,39.3,588.49Z"/><path class="cls-4" d="M43.63,591.42c1.87-.47,3,3,1.06,8.65C44.69,600.07,39.68,592.42,43.63,591.42Z"/><path class="cls-4" d="M49.28,599.91c2.06.14,2,5.12-.15,7.15C49.13,607.06,46,599.69,49.28,599.91Z"/><path class="cls-4" d="M54.36,606.76c-.29-1.51-2.8-.49-3.44,1.44s.34,4.63.34,4.63S55,610.42,54.36,606.76Z"/><path class="cls-4" d="M49.72,613.55c.52,1.51,1,3.07,1.46,4.7a90.3,90.3,0,0,1,2.88,16.1l-.46,0a91,91,0,0,0-2.87-16,62.2,62.2,0,0,0-5.21-13.29,31.65,31.65,0,0,0-9.11-10.84,11.89,11.89,0,0,1-1.32-1.08l-2.09-2,.32-.34,2.09,2a12.1,12.1,0,0,0,1.27,1,32.1,32.1,0,0,1,9.26,11A57.33,57.33,0,0,1,49.72,613.55Z"/><polygon class="cls-4" points="51.55 612.7 50.24 615.62 46.41 615.65 46.41 615.18 49.94 615.16 51.12 612.51 51.55 612.7"/><polygon class="cls-4" points="49.51 606.73 48.51 610.86 42.75 608.51 42.92 608.08 48.19 610.22 49.06 606.62 49.51 606.73"/><polygon class="cls-4" points="44.88 600.03 45.13 603.83 39.84 602.53 39.96 602.08 44.62 603.23 44.42 600.06 44.88 600.03"/><path class="cls-4" d="M38.64,593.72V596l-.39-.36a5.09,5.09,0,0,0-3.53-1l0-.46a5.84,5.84,0,0,1,3.48.86v-1.3Z"/><path class="cls-4" d="M46.91,615.46l-.3.13c-.17.07-4.13,1.8-6.17.64a2.3,2.3,0,0,1-1.14-1.85h0a1.61,1.61,0,0,1,.89-1.8c1.38-.65,4.19.16,6.5,2.64Zm-7-.6a1.74,1.74,0,0,0,.79,1c1.53.86,4.48-.16,5.44-.54-2.09-2.1-4.57-2.83-5.73-2.29a1.16,1.16,0,0,0-.62,1.33h0A2.16,2.16,0,0,0,39.88,614.86Z"/><path class="cls-4" d="M43.55,608.41l-.14.14c-1.27,1.41-4.61,1-6.74-.34-1.47-.91-2.08-2.06-1.66-3.15a2.12,2.12,0,0,1,1.66-1.47c1.68-.26,4.21,1.48,6.75,4.66Zm-8.12-2.19a3.59,3.59,0,0,0,1.49,1.6c1.85,1.15,4.79,1.6,6,.56-2.36-2.9-4.72-4.56-6.19-4.33a1.66,1.66,0,0,0-1.29,1.18A1.41,1.41,0,0,0,35.43,606.22Z"/><path class="cls-4" d="M40.44,602.48l-.22.09a6.6,6.6,0,0,1-5.21-.74,8.88,8.88,0,0,1-2.43-1.9c-.7-.79-1-1.51-.77-2h0a2.07,2.07,0,0,1,1.28-1.15,4.88,4.88,0,0,1,3.86.73c1.9,1.1,3.34,4.61,3.4,4.76Zm-8.17-3.88a6.65,6.65,0,0,0,3,2.82,6.52,6.52,0,0,0,4.59.78c-.36-.8-1.61-3.42-3.1-4.29a4.45,4.45,0,0,0-3.48-.69,1.59,1.59,0,0,0-1,.89h0A.71.71,0,0,0,32.27,598.6Z"/><path class="cls-4" d="M35.3,594.4l-.43.22c-.11,0-2.86,1.42-4.68.69a2.36,2.36,0,0,1-1.35-1.46h0a1.39,1.39,0,0,1,.39-1.56,2.81,2.81,0,0,1,2.86-.39,9.18,9.18,0,0,1,2,1.61,7.89,7.89,0,0,0,.78.68Zm-6-.7a1.83,1.83,0,0,0,1.08,1.17c1.28.52,3.18-.18,4-.51l-.56-.52a9.29,9.29,0,0,0-1.86-1.52,2.38,2.38,0,0,0-2.36.31.94.94,0,0,0-.26,1.06Z"/><path class="cls-4" d="M32.5,587.11a21.55,21.55,0,0,1,.86,3.67c0,.07,0,.12,0,.15a.23.23,0,0,1-.06.22c-.08.08-.16.17-1.16-.17-1.17-.39-5-2-5.55-5.77h0a2.2,2.2,0,0,1,1.27-2.16c.58-.25,1.77-.4,3.25,1.42A8.75,8.75,0,0,1,32.5,587.11Zm.38,3.61c-.54-3.43-1.44-5.13-2.11-6-.95-1.18-1.92-1.64-2.71-1.29a1.74,1.74,0,0,0-1,1.67h0C27.57,588.89,31.71,590.44,32.88,590.72Z"/><path class="cls-4" d="M39.22,587.13a7,7,0,0,1,.31,1.33,9.14,9.14,0,0,1-.9,5.83l-.17.27-.2-.24a17.34,17.34,0,0,1-1.7-2.47c-1.08-1.9-1.46-3.5-1.14-4.73s1-2,1.88-2S38.81,586,39.22,587.13Zm-.15,1.39c-.19-1.35-.83-2.84-1.8-2.89-.6,0-1.13.56-1.4,1.6-.59,2.29,1.78,5.56,2.52,6.51A9.35,9.35,0,0,0,39.07,588.52Z"/><path class="cls-4" d="M45.64,592.67c.5,1.43.51,3.92-.73,7.48l-.16.44-.26-.39c-.14-.21-3.4-5.25-2.43-7.74a2,2,0,0,1,1.52-1.27h0a1.49,1.49,0,0,1,1.5.47A2.91,2.91,0,0,1,45.64,592.67Zm-1,6.86c1.28-3.9,1-6.59.12-7.55a1,1,0,0,0-1.05-.34h0a1.62,1.62,0,0,0-1.2,1c-.36.92-.07,2.47.85,4.48A24.06,24.06,0,0,0,44.62,599.53Z"/><path class="cls-4" d="M50.79,601.05a6.47,6.47,0,0,1-1.51,6.18l-.24.22-.13-.3a24.32,24.32,0,0,1-.94-2.77c-.54-2-.56-3.41,0-4.13a1.44,1.44,0,0,1,1.36-.57h0A1.77,1.77,0,0,1,50.78,601Zm-1.58,5.59a6.13,6.13,0,0,0,1.14-5.43v0a1.36,1.36,0,0,0-1.09-1,1,1,0,0,0-.95.37C47.49,601.66,48.58,605.07,49.21,606.64Z"/><path class="cls-4" d="M54.53,606.52a1.17,1.17,0,0,1,0,.2h0a5.58,5.58,0,0,1-1.34,4.6A8.9,8.9,0,0,1,51.38,613l-.25.16L51,612.9c0-.11-1-2.92-.34-4.78a3.32,3.32,0,0,1,2.88-2.32A1,1,0,0,1,54.53,606.52Zm-3.14,5.93c.81-.61,3.28-2.73,2.74-5.65h0a.59.59,0,0,0-.58-.53,2.89,2.89,0,0,0-2.41,2A8.22,8.22,0,0,0,51.39,612.45Z"/><path class="cls-4" d="M85.79,630.39c2.24-1.42,3.75,2.51,2.06,6.76C87.85,637.15,82.48,632.48,85.79,630.39Z"/><path class="cls-4" d="M92.29,622.58c3-.21,2.92,3.65.48,8.63C90,630.35,89.25,622.79,92.29,622.58Z"/><path class="cls-4" d="M97.38,616.64c1.39-.07,2.56,1.58,2.33,4.22-.19,2.13-2.8,5-2.8,5A6.37,6.37,0,0,1,95.43,621C95.54,618.92,96.44,616.68,97.38,616.64Z"/><path class="cls-4" d="M100,612.15c1.11-1.09,2.71.46,2.75,1.94,0,.94-.92,3.13-.9,3.49C101.81,617.58,97.69,614.37,100,612.15Z"/><path class="cls-4" d="M106.78,606.48c1.11-.72,3.93,0,2.26,3.48-1.18,2.45-4.74,4.63-4.82,4.71S102.89,609,106.78,606.48Z"/><path class="cls-4" d="M109.09,619.16a9,9,0,0,1-5.5,1.64s2.26-5,5.14-5.5S112.08,617.22,109.09,619.16Z"/><path class="cls-4" d="M108.29,624.33c1.23,1.48-1.38,4-7.38,4.64C100.91,629,105.7,621.17,108.29,624.33Z"/><path class="cls-4" d="M103,633.06c.76,1.92-3.75,4-6.52,2.9C96.49,636,101.82,630,103,633.06Z"/><path class="cls-4" d="M99,640.57c1.25-.9-.75-2.74-2.76-2.5s-4,2.28-4,2.28S96,642.74,99,640.57Z"/><path class="cls-4" d="M90.87,639.27q-1.71,1.66-3.63,3.32a90.53,90.53,0,0,1-13.34,9.47l-.22-.41a90.56,90.56,0,0,0,13.26-9.42,62.94,62.94,0,0,0,9.81-10.37A31.68,31.68,0,0,0,102.67,619a13.72,13.72,0,0,1,.42-1.65l.91-2.75.44.15-.91,2.75a10.87,10.87,0,0,0-.4,1.59,32,32,0,0,1-6,13.06A58,58,0,0,1,90.87,639.27Z"/><polygon class="cls-4" points="92.42 640.56 89.21 640.62 87.56 637.17 87.98 636.97 89.5 640.15 92.41 640.09 92.42 640.56"/><polygon class="cls-4" points="96.95 636.17 92.79 637.02 92.46 630.81 92.92 630.78 93.22 636.46 96.85 635.71 96.95 636.17"/><polygon class="cls-4" points="101.04 629.13 97.7 630.97 96.63 625.63 97.09 625.54 98.03 630.26 100.81 628.72 101.04 629.13"/><path class="cls-4" d="M104.08,620.79l-2.07,1,.16-.51a5.08,5.08,0,0,0-.57-3.63l.41-.21a5.86,5.86,0,0,1,.7,3.51l1.18-.55Z"/><path class="cls-4" d="M87.94,637.54l-.24-.22c-.14-.12-3.39-3-3.21-5.3a2.31,2.31,0,0,1,1.18-1.83h0a1.62,1.62,0,0,1,2,0c1.17,1,1.64,3.86.39,7Zm-2.45-6.62a1.73,1.73,0,0,0-.54,1.13c-.13,1.76,2,4,2.8,4.7,1-2.79.62-5.35-.37-6.16a1.14,1.14,0,0,0-1.46,0h0A2.58,2.58,0,0,0,85.49,630.92Z"/><path class="cls-4" d="M92.89,631.49l-.19-.06c-1.81-.56-2.85-3.75-2.56-6.24.2-1.73,1-2.76,2.14-2.84a2.1,2.1,0,0,1,2,.87c1,1.41.45,4.44-1.34,8.09Zm-1.48-8.27a3.54,3.54,0,0,0-.81,2c-.25,2.17.59,5,2.05,5.68,1.62-3.37,2.11-6.21,1.28-7.45a1.67,1.67,0,0,0-1.62-.66A1.33,1.33,0,0,0,91.41,623.22Z"/><path class="cls-4" d="M96.92,626.15l-.17-.16a6.58,6.58,0,0,1-1.55-5,9.14,9.14,0,0,1,.68-3c.42-1,1-1.53,1.49-1.55h0a2,2,0,0,1,1.58.67,4.9,4.9,0,0,1,1,3.8c-.19,2.19-2.75,5-2.86,5.1Zm0-9a7.52,7.52,0,0,0,0,8.37c.58-.66,2.41-2.91,2.57-4.63a4.44,4.44,0,0,0-.87-3.44,1.56,1.56,0,0,0-1.22-.53h0A.71.71,0,0,0,97,617.1Z"/><path class="cls-4" d="M102.05,618.06l-.38-.29c-.1-.08-2.51-2-2.62-3.95a2.32,2.32,0,0,1,.74-1.84h0a1.38,1.38,0,0,1,1.57-.31,2.79,2.79,0,0,1,1.57,2.42,9.56,9.56,0,0,1-.6,2.49,7.86,7.86,0,0,0-.3,1Zm-1.93-5.74a1.83,1.83,0,0,0-.61,1.47c.08,1.38,1.52,2.8,2.15,3.36l.23-.72a9.34,9.34,0,0,0,.59-2.33,2.35,2.35,0,0,0-1.28-2,.93.93,0,0,0-1.08.21Z"/><path class="cls-4" d="M107.44,612.42a20.45,20.45,0,0,1-3,2.34l-.12.08a.24.24,0,0,1-.23,0c-.1,0-.22-.08-.34-1.12-.14-1.24-.36-5.42,2.85-7.48h0a2.18,2.18,0,0,1,2.5.22c.47.42,1.12,1.43.1,3.55A8.85,8.85,0,0,1,107.44,612.42Zm-3.09,1.88c2.87-1.94,4-3.49,4.48-4.44.66-1.37.66-2.43,0-3a1.69,1.69,0,0,0-1.93-.18h0C103.73,608.72,104.1,613.12,104.35,614.3Z"/><path class="cls-4" d="M110.29,618.51a7.41,7.41,0,0,1-1.07.85,9.19,9.19,0,0,1-5.65,1.67l-.32,0,.13-.29a19.29,19.29,0,0,1,1.51-2.58c1.26-1.79,2.54-2.82,3.8-3s2.25.08,2.56.86S111.19,617.64,110.29,618.51ZM109,619c1.14-.75,2.21-2,1.85-2.86-.22-.57-1-.79-2-.59-2.32.44-4.27,4-4.81,5.06A9.36,9.36,0,0,0,109,619Z"/><path class="cls-4" d="M108,626.68c-1.08,1.06-3.33,2.13-7.08,2.52l-.47,0,.25-.4c.13-.22,3.29-5.32,6-5.5a2,2,0,0,1,1.79.83h0a1.47,1.47,0,0,1,.22,1.56A2.79,2.79,0,0,1,108,626.68Zm-6.64,2c4.07-.51,6.38-1.91,6.88-3.11a1,1,0,0,0-.15-1.1h0a1.6,1.6,0,0,0-1.39-.66c-1,.07-2.27,1-3.7,2.68A23,23,0,0,0,101.38,628.68Z"/><path class="cls-4" d="M102.63,634.91a6.51,6.51,0,0,1-6.23,1.27l-.31-.13.22-.24a25.58,25.58,0,0,1,2.1-2c1.6-1.35,2.85-2,3.72-1.8a1.43,1.43,0,0,1,1.1,1h0a1.75,1.75,0,0,1-.59,1.93Zm-5.73,1a6.15,6.15,0,0,0,5.4-1.28h0a1.36,1.36,0,0,0,.49-1.43,1,1,0,0,0-.75-.71C100.67,632.19,98.06,634.62,96.9,635.86Z"/><path class="cls-4" d="M99.28,640.62l-.16.14h0a5.59,5.59,0,0,1-4.73.74,8.78,8.78,0,0,1-2.34-1l-.25-.16.21-.21c.09-.08,2.23-2.11,4.18-2.34a3.32,3.32,0,0,1,3.33,1.62A1,1,0,0,1,99.28,640.62Zm-6.71-.31c.9.47,3.87,1.8,6.28.07h0a.59.59,0,0,0,.24-.75,2.9,2.9,0,0,0-2.84-1.33A8.31,8.31,0,0,0,92.57,640.31Z"/><path class="cls-5" d="M77.9,660.68l-.44-.09c-3.14-.71-22.28-5.49-36.42-20s-18.35-33.83-19-37c-.06-.27-.09-.43-.09-.44h0l.45.09a82.21,82.21,0,0,1,25.48,11.06,66.14,66.14,0,0,1,10.93,9c8,8.23,12.8,18,15.6,25.43a76.7,76.7,0,0,1,3.37,11.55C77.87,660.53,77.9,660.68,77.9,660.68Z"/><path class="cls-3" d="M22,603.12s0,.17.09.44l55.38,57,.44.09s0-.15-.08-.45l-55.38-57-.45-.09Z"/><path class="cls-8" d="M74.45,648.68c-.51,2.78-1.07,5-1.49,6.56,0,.2-.11.38-.16.56-.16.56-.29,1-.38,1.29s-.15.43-.15.43l-.34-.29A82.21,82.21,0,0,1,57.75,640.3c-.4-.64-.79-1.28-1.19-1.95a67.59,67.59,0,0,1-7-16.16,63.8,63.8,0,0,1-1.65-7.92,66.14,66.14,0,0,1,10.93,9C66.83,631.48,71.65,641.21,74.45,648.68Z"/><path class="cls-7" d="M75.46,649.64c-.13.44-.24.78-.32,1l-.14.43-.34-.29a75.19,75.19,0,0,1-8.22-8.68h0C61.38,636,55.38,626.85,52.3,615.77c-5.43-19.54.1-38.49,1.07-41.55l.14-.43h0l.35.3a81.16,81.16,0,0,1,12.58,14.49q1.31,1.9,2.57,4a67.65,67.65,0,0,1,7.2,16.52C81.21,627.1,76.93,644.57,75.46,649.64Z"/><path class="cls-3" d="M53.51,573.79l-.14.43,21.29,76.59.34.29.14-.43L53.86,574.08l-.35-.29Z"/><path class="cls-9" d="M75.46,649.64c-1.46-1.47-3.29-3.44-5.26-5.85h0C70.07,643.5,58,616.23,69,592.6a67.65,67.65,0,0,1,7.2,16.52C81.21,627.1,76.93,644.57,75.46,649.64Z"/><path class="cls-5" d="M92.63,596a64.76,64.76,0,0,1,.05,14.14,73.72,73.72,0,0,1-9.63,28.23A76,76,0,0,1,76.54,648l-.24.29-.29.35-.21-.4c-1.46-2.86-10-20.66-7.79-40.83s14.34-35.71,16.38-38.19l.29-.35h0l.21.4a81.78,81.78,0,0,1,7.16,22.43C92.28,593.08,92.48,594.5,92.63,596Z"/><path class="cls-3" d="M84.68,568.87l-.29.35-8.59,79,.21.4.29-.35,8.59-79-.21-.4Z"/><rect class="cls-10" x="15" y="644.18" width="570" height="20.15" rx="8.24"/><g id="_1" data-name="1"><path class="cls-11" d="M167.35,192.42c-1.65.84-13-1.51-13,1.23S173,197.78,173,197.78s-5,1-6.2,1-6.3-1-5.77,1.91,13.91,1.67,15.29,1.46,3.44.29,5.07-.18a60.08,60.08,0,0,1,9.67-1.54,5.25,5.25,0,0,1,1.95.7,58.36,58.36,0,0,1,6.54,4.36c.71-.32,5.67-10.85,2.14-15,0,0-.82-.49-2-1.24-2.83-1.77-7.75-5-9.1-6.65-1.91-2.38-19-10.93-20.13-10-2.74,2.18,2.76,6.09,4.76,6.75a40.93,40.93,0,0,1,5.79,3,31.91,31.91,0,0,1-5.23.71A41.46,41.46,0,0,1,165.48,181c-4.57-1.38-9.19-3.57-11.36-.81s16.78,7.38,16.78,7.38c-2,.45-7.38-1-9.67-1.43s-9.86-2.26-10.14.23C150.78,189.05,167.35,192.42,167.35,192.42Z"/><path class="cls-12" d="M193,201.14a58.36,58.36,0,0,1,6.54,4.36c.71-.32,5.67-10.85,2.14-15,0,0-.82-.49-2-1.24C196.81,191.35,194.17,197.86,193,201.14Z"/><path class="cls-3" d="M358.28,174.11s-.42.52-1.23,1.46l-.24.28-.17.19-.11.13-.27.31-.79.9-.37.41-.06.08-.42.46c-.72.81-1.55,1.72-2.47,2.71l-.83.89-.1.1-1,1q-.68.72-1.41,1.47c-1,1.05-2.12,2.16-3.29,3.31-.61.61-1.25,1.23-1.9,1.86l-.91.88-.82.78-.51.48c-.7.66-1.42,1.33-2.16,2l-.77.7c-.44.41-.9.82-1.36,1.22l-.56.5c-3.39,3-7.09,6.1-11,9.11l-1.32,1-1.33,1h0l-1.16.84-1,.71c-1,.69-1.95,1.37-2.94,2l-.79.54-.11.07-.84.55c-.6.4-1.21.79-1.82,1.17-.31.2-.62.4-.94.59l-1.09.68-1.11.66-.86.51-1.36.79c-2.31,1.31-4.67,2.55-7.06,3.7l-1.27.6a76.23,76.23,0,0,1-21.09,6.49,52.17,52.17,0,0,1-6.71.54q-1.49,0-3,0l-2.33-.11q-4.87-.28-9.52-.86c-37-4.47-62.48-21.31-62.48-21.31l0-.43c.09-.76.2-1.51.33-2.27a43.92,43.92,0,0,1,2.14-8,44.61,44.61,0,0,1,2.35-5.24,45.75,45.75,0,0,1,2.48-4.14c24.79,9.59,42.16,12.68,55.13,12.76a76.21,76.21,0,0,0,8.55-.39q2.86-.3,5.42-.77l.85-.15c.95-.19,1.88-.39,2.77-.6,3.34-.78,6.31-1.7,9.06-2.6,8.06-2.64,17.54-11.27,25.74-19.48,5-5,9.53-9.86,13-13.1q1.35-1.27,2.46-2.19l.16.08,17.95,8.34,2.32,1.08,5.79,2.7,1.71.79,4.05,1.89Z"/><path class="cls-13" d="M301.77,220.21l-1.27.6a76.23,76.23,0,0,1-21.09,6.49,52.17,52.17,0,0,1-6.71.54q-1.49,0-3,0l-2.33-.11q-4.87-.28-9.52-.86c-37-4.47-62.48-21.31-62.48-21.31l0-.43c.09-.76.2-1.51.33-2.27a43.92,43.92,0,0,1,2.14-8,44.61,44.61,0,0,1,2.35-5.24,45.75,45.75,0,0,1,2.48-4.14c24.79,9.59,42.16,12.68,55.13,12.76a76.21,76.21,0,0,0,8.55-.39q2.86-.3,5.42-.77C281.39,205.51,291.37,213.7,301.77,220.21Z"/><path class="cls-10" d="M409.46,138.8c-10.26-12.72-31.86-6.63-35,4.8s19.93,10.11,28,7.61S409.46,138.8,409.46,138.8Z"/><polygon class="cls-11" points="436.14 599.74 436.13 600.63 435.97 613.51 435.86 622.82 434.17 633.79 420.94 626.47 418.08 609.48 416.44 599.74 436.14 599.74"/><path class="cls-14" d="M388.57,646.25h50.49a11,11,0,0,0,0-6.56s0,0,0,0c-.55-13.73-3.21-17.14-3.21-17.14s-.63,5.61-2.28,7.26-3.84.55-3.29-6.59-2.74-7.68-9.33-7.68-4.94,3.84-5.49,7.68-11,12.62-11,12.62c-6.58,0-11-1.09-14.82,2.2a5.74,5.74,0,0,0-1.56,2.07C386.79,643.06,388.57,646.25,388.57,646.25Z"/><path class="cls-15" d="M388.57,646.25h50.49a11,11,0,0,0,0-6.56l-51,.4C386.79,643.06,388.57,646.25,388.57,646.25Z"/><polygon class="cls-11" points="355.33 624.02 356.17 636.68 339.01 628.81 337.67 608.65 337.32 603.48 357.02 602.92 355.82 617.89 355.33 624.02"/><path class="cls-14" d="M301.93,646.25H358a49.42,49.42,0,0,0,.39-6,41.92,41.92,0,0,0-2.94-16.14s-.63,2.76-4.46,5.73-1.61-4.62-2.14-7.84c-.85-5.1-5.63-5.34-12.66-5.34-2.54,0,.78,6-.49,9.36a5.84,5.84,0,0,1-1.25,1.91h0c-2.22,2.36-6.5,4.13-10.23,6.16-4.67,2.55-9.34.43-14.44,1.7s-5.74,4.46-5.74,4.46a2.88,2.88,0,0,0-.74.54C301.59,642.56,301.93,646.25,301.93,646.25Z"/><path class="cls-15" d="M301.93,646.25H358a49.42,49.42,0,0,0,.39-6H304.05l-.74.54C301.59,642.56,301.93,646.25,301.93,646.25Z"/><path class="cls-16" d="M422.87,324.83l19.94,288.6a1.84,1.84,0,0,1-1.84,2H412.9a1.84,1.84,0,0,1-1.82-1.54L384.57,454.55l-10-56.69-12.41,215.8a1.84,1.84,0,0,1-1.84,1.74H331.51a1.85,1.85,0,0,1-1.85-1.77L322.59,442l4.51-117.19Z"/><path class="cls-11" d="M363.72,156.75l7-11c2.69-1.7,11-1.89,12.18-3.2a35.49,35.49,0,0,0,8.59-26.34c-.38-4.5-.44-9.5.47-13.29,2.15-8.93,14.94-4.48,11.12,4.61-1.48,3.53-5.72,8.16-6.51,10.19-1.26,3.2,1.41,2.74,1.41,2.74l15,39.2s-14.94-2.76-20.73,2.48Z"/><path class="cls-13" d="M308.83,216.51c23.87-13.57,43.27-35.17,48.22-40.94.81-.94,1.23-1.46,1.23-1.46l-.61-.28-32-14.88c-.74.61-1.56,1.34-2.45,2.19C319.58,176.09,312.47,202.89,308.83,216.51Z"/><path class="cls-11" d="M365.9,94.17c8.69-1.12,13.9-3.18,17-5.12-1.4,2.48-4.86,4.82-12.5,5.71,0,0,11.64,4.76,17.61-3.5.71,3.75-3.36,7.45-3.36,7.45a4.9,4.9,0,0,0,3.87-1.94c.2,5,0,10.38-1.27,13.61-2.94,7.39-8.29,14.83-12.18,15.16s-9.88-6.62-13.52-7.23a9.25,9.25,0,0,0-7.48,2.66,29.33,29.33,0,0,1-1.28-8,20.68,20.68,0,0,1,1.2-7.4,12.84,12.84,0,0,0,.35-7.8c-.17-.63-.34-1.35-.5-2.16a54.43,54.43,0,0,1-.68-5.44A15.16,15.16,0,0,0,365.9,94.17Z"/><path class="cls-12" d="M353.17,90.21h0l.58.51.06,0,.55.44.09.06.55.4.1.07c.19.13.37.25.56.36l.11.07c.2.12.4.24.61.35l.07,0a14.63,14.63,0,0,0,2.22,1l.12,0,.65.2.23.06.56.13a2.8,2.8,0,0,0,.28.06l.53.1.32,0,.52.06.34,0,.54,0H364l.63,0,.3,0,1-.1h0c1.83-.23,3.5-.51,5-.82a37.21,37.21,0,0,0,11.46-4l.34-.2a17.08,17.08,0,0,0,2.43-1.78l.39-.37.35-.35a10.68,10.68,0,0,0,.78-1c.13-.18.24-.36.33-.51a3.53,3.53,0,0,0,.38-.8,125.07,125.07,0,0,1,1.18,14C377.92,101.78,361.2,100.4,353.17,90.21Z"/><path class="cls-17" d="M410.86,149.74c-3.9,13.58-55.27,14.5-40.16-4,0,0-46.55,29.51-30,158.81l0,23.68h45.28Z"/><path class="cls-18" d="M362.57,153.73c4.68-5.78,8.13-8,8.13-8-15.11,18.47,36.26,17.55,40.16,4l-1.24,8.86C398.42,168.6,360.55,169.91,362.57,153.73Z"/><path class="cls-3" d="M314,428.79a91.66,91.66,0,0,0,31.21,2.13s2.06-60.49,4-116c.17-4.8.34-9.56.5-14.24.06-1.57.11-3.13.17-4.68,0-.65.05-1.3.07-1.94.27-7.48.53-14.69.78-21.46h0c.06-1.77.12-3.51.19-5.21,0-.35,0-.69,0-1,0-.86.06-1.7.09-2.54.24-6.36.46-12.2.66-17.32.47-12,.82-20.08,1-22,.86-10.27,8.56-58.49,12-65.91,2.83-6.12,7-14.47,8.39-17.2a11,11,0,0,1-3.82,2.51c-11.48,5.32-42.12,10.68-43.67,15.62-.85,2.7-3.31,57.88-5.74,117.59-.05,1.13-.09,2.26-.14,3.39,0,.68-.05,1.37-.08,2.06-.22,5.42-.44,10.87-.66,16.31q-.12,3.13-.25,6.25-.36,9.15-.72,18.15C315.8,379.6,314,428.79,314,428.79Z"/><path class="cls-3" d="M367.2,431.77a138.58,138.58,0,0,0,29.14,2.58,161.61,161.61,0,0,0,24.36-2.24,133,133,0,0,0,20.49-5h0c-5.88-39.82-6.66-105.15-5.94-161.07,0-1.78.05-3.55.08-5.3,0-1.92.05-3.82.08-5.71.08-4.24.15-8.39.24-12.47.06-3.21.13-6.37.2-9.46.33-14.25.73-27.18,1.1-38,0-1.29.09-2.54.13-3.76.65-18.52,1.21-30,1.21-30-1.61-.78-3.13-1.54-4.57-2.26-3.25-1.66-6.08-3.17-8.52-4.56s-4.39-2.61-6.1-3.77c-1.44-1-2.66-1.87-3.7-2.73a28.21,28.21,0,0,1-2.57-2.37l-.13-.15a16.13,16.13,0,0,1-1.38-1.7,10.14,10.14,0,0,1-1.71-4,9,9,0,0,1-.15-1l-.47.69c-.33.47-.8,1.17-1.41,2.07-1.21,1.81-2.95,4.43-5,7.6-3.17,4.89-7.1,11.09-11,17.66-8.94,15-13.07,42.7-16.66,78.25-.07.64-.14,1.31-.2,2-.12,1.33-.24,2.79-.36,4.35-.09,1.08-.53,7.35-.66,9.51-.07,1-.13,2.09-.2,3.17-.46,7.75-.93,16.81-1.38,26.63q-.14,3.18-.29,6.47c0,.91-.08,1.81-.11,2.73q-.15,3.35-.29,6.75l-.09,2.27C369,364.36,367.2,431.77,367.2,431.77Z"/><path class="cls-13" d="M399.14,193.4l-2.44-21.82L410.31,166l-.84-27.22-.47.69c-.33.47-.8,1.17-1.41,2.07-1.21,1.81-2.95,4.43-5,7.6-3.17,4.89-7.1,11.09-11,17.66-8.94,15-13.07,42.7-16.66,78.25Z"/><path class="cls-3" d="M376.42,140.49l-.45.9A2,2,0,0,0,376.42,140.49Z"/><path class="cls-13" d="M321.86,298.87c7.57-1.13,18.81-2.86,31-4.85,27.68-4.54,60.21-10.47,65.4-14,9.28-6.39,14.22-18.29,17.23-36.9L408.9,187s-21.71,57.26-26.13,65.09c-1.89,3.34-14.75,8.91-28.9,14.2-11.15,4.18-23.33,13.62-31.35,16.24,0,1.12.13-3.19.08-2.06,0,.68-.05,1.37-.08,2.06C322.3,288,322.08,293.43,321.86,298.87Z"/><path class="cls-13" d="M343.26,187l8.21,59.43c.47-12,.82-20.08,1-22,.85-10.27,8.56-58.49,12-65.91,2.83-6.12,7-14.47,8.39-17.2L369,143.9l-18.24,12,3.07,17.28Z"/><path class="cls-10" d="M352.2,124.67c.19-3.71.6-11.66.6-11.66h0a29.38,29.38,0,0,0,1.28,8,9.25,9.25,0,0,1,7.48-2.66c3.64.61,9.63,7.56,13.52,7.23s9.24-7.77,12.18-15.16c1.28-3.23,1.47-8.6,1.27-13.61a4.9,4.9,0,0,1-3.87,1.94s4.07-3.7,3.36-7.45c-6,8.26-17.61,3.5-17.61,3.5,7.64-.89,11.1-3.23,12.5-5.71-3.11,1.94-8.32,4-17,5.12-19.51,2.51-22.64-26.88-22.64-26.88,2.15,3.31,6.72,4.5,6.72,4.5.87.1,1.68.17,2.44.21a3.36,3.36,0,0,1-1-2.06c4.71,2.41,10.95-.08,11-.09,3-1.66,5.75-3.82,11.89-5,8.11-1.5,12.67.44,14.8,1.89a16.54,16.54,0,0,0,0-4.28c1.51,2.08,1.61,3.4,1.43,4.15,2.1-1.82,6.34-2.24,8.16-1.66a19.37,19.37,0,0,0-3.8,1.93A16.46,16.46,0,0,1,403,68c8.6,3.44,14.7,18.76,13.5,28.19S398,120.48,398,120.48s-2.67.46-1.41-2.74c.79-2,5-6.66,6.51-10.19,3.82-9.09-9-13.54-11.12-4.61-.91,3.79-.85,8.79-.47,13.29a35.49,35.49,0,0,1-8.59,26.34c-3.64,4.13-17.89,13.11-23.89,8.35C353.36,146.46,351.67,129.56,352.2,124.67Z"/><path class="cls-10" d="M416.49,150.5a10.74,10.74,0,0,0-1.08-2.48,14.18,14.18,0,0,0-4.08-4.22,10.14,10.14,0,0,1-1.71-4c4.36,2.39,7.87,5.54,9.23,10,.1.32.18.64.26,1,1.61,7.16-2.39,16.68-12.19,29.06L405,178.28C414.7,166,418.47,156.93,416.49,150.5Z"/><path class="cls-13" d="M396.34,434.35a161.61,161.61,0,0,0,24.36-2.24,133,133,0,0,0,20.49-5h0c-5.88-39.82-6.66-105.15-5.94-161.07C431.43,317.75,417,400.48,396.34,434.35Z"/><path class="cls-10" d="M343.53,183.63a66.3,66.3,0,0,1-.43-7.3c0-11.4,3.1-18.35,5.74-22.18,4-5.83,10.1-9.36,18-10.49l.35,2.44c-7.21,1-12.7,4.2-16.33,9.45-4.41,6.38-5.32,14.79-5.31,20.71a64.22,64.22,0,0,0,.41,7,4.86,4.86,0,1,1-2.44.39Z"/><path class="cls-17" d="M224,513.71H181.67c0-31.58,5.4-55.86,17-76.39,10.48-18.55,24.17-31.05,38.66-44.27,10.67-9.74,21.71-19.81,32.31-33.26,9-11.37,14.28-25.58,15.4-41.09a88.54,88.54,0,0,0-8.52-44.27c-12.67-26.12-36.16-41.1-64.44-41.1-27.1,0-46.64,11.54-59.73,35.26a116.47,116.47,0,0,0-12.84,40.32v-.08l-42.13-3.55a158.69,158.69,0,0,1,17.14-55.64c9-16.74,20.65-30.19,34.74-40,17.75-12.35,38.89-18.61,62.81-18.61a112.07,112.07,0,0,1,63,18.8A117.07,117.07,0,0,1,314.56,256a129.57,129.57,0,0,1,12.64,65.75c-1.72,24-10.14,46.18-24.36,64.22-12.74,16.18-25.64,27.95-37,38.33-13,11.82-23.19,21.16-30.35,33.83C227.61,472,224,489.71,224,513.71Z"/><circle class="cls-17" cx="203.54" cy="611.59" r="34.55" transform="matrix(0.08, -1, 1, 0.08, -422.76, 764)"/><path class="cls-10" d="M331,273.9c-2.49,0-2.22,27.38,7.48,25.29S341.42,273.9,331,273.9Z"/><path class="cls-11" d="M312.31,294.32c-1.38,1.51-6.61,3.44-8.75,4.36s-8.42,3.22-7.84,6.5,7.48-1.14,8.43-1.94,8-2.93,8-2.93c-.87,1.63-11.54,6.19-10,8.46s12-3.9,12.8-4.86,4.75-2.35,4.87-2.39c-.11.11-3.58,3.68-4.51,4.36s-5.77,2.74-3.65,4.86S324,304.16,325,303.21s3-1.72,4.06-3a69.64,69.64,0,0,1,5.85-5.82,12.72,12.72,0,0,1,1.21-1c1.61-1.08,9.86-.7,9.86-.7.39-.66-1.75-14.44-7-15.87,0,0-3.65,1.06-7.24,1.74-2.5.48-5,.78-6.17.43-2.92-.86-9.33-.73-12.28,1.15s-11-1.24-10,2.1,5.74,3.42,7.76,2.82a41.06,41.06,0,0,1,6.45-.87,33.05,33.05,0,0,1-3.89,3.58,41.43,41.43,0,0,1-9.51,4.26c-4.54,1.48-9.58,2.32-9.78,5.83S312.31,294.32,312.31,294.32Z"/><path class="cls-12" d="M331.73,278.55c4.72,4.94,5.4,11.27,3.22,15.8a12.72,12.72,0,0,1,1.21-1c1.61-1.08,9.86-.7,9.86-.7.39-.66-1.75-14.44-7-15.87C339,276.81,335.32,277.87,331.73,278.55Z"/><path class="cls-3" d="M331,273.9a8.35,8.35,0,0,1,3.4,1.29,8.69,8.69,0,0,1,2.7,2.86c4.4,7.25,1.38,21.14,1.38,21.14.32.06,6-1.16,14.27-3.23,4.25-1.06,9.18-2.35,14.42-3.81,1.61-.45,3.25-.91,4.9-1.39,17.54-5.05,37.11-11.67,45.82-17.84,6.17-4.37,12.39-15.86,17.56-29.83,0-.16.12-.33.18-.49a215.26,215.26,0,0,0,11.64-49.67q.18-1.83.3-3.57a82.35,82.35,0,0,0,.12-10.92,34.65,34.65,0,0,0-1.36-8.22c-3.29-10.27-11.68-11.09-12.63-11.14h-.08c-10.39-2-18.43,11-24.75,28h0c-2.68,7.21-5.06,15.14-7.17,22.95-4,14.93-7.1,29.39-9.54,37.53-1,3.39-1.93,5.67-2.75,6.44-1.63,1.51-6.36,3.59-12.47,5.83-1.06.39-2.16.79-3.29,1.18-2.07.73-4.25,1.46-6.48,2.19-4.39,1.44-9,2.87-13.37,4.2-3.77,1.13-7.38,2.19-10.58,3.12C336.09,272.53,331,273.9,331,273.9Z"/><path class="cls-10" d="M397.45,209.08a36.92,36.92,0,0,1-7,4.82c-.13-.4-.25-.8-.36-1.21l-2.36,5c.45-.15.89-.32,1.34-.5a20.18,20.18,0,0,0,4.11,6.29,2.63,2.63,0,0,0-.1.7,2.47,2.47,0,0,0,.74,1.77l.57-1.44c.18-.47.37-.95.56-1.43s.37-.93.55-1.4a2,2,0,0,0-.55.08,17.58,17.58,0,0,1-3.64-5.58,38.14,38.14,0,0,0,7.75-5.27c.34-.29.67-.59,1-.9h0l2.32-6A44.13,44.13,0,0,1,397.45,209.08Zm13.73-25a8.82,8.82,0,0,0-.64-1.31,10.12,10.12,0,0,0-3.3-3.41,4.8,4.8,0,0,0-.48-.3,11.46,11.46,0,0,0-1.1-.59l-.2-.09-.44-.18-.39-.14a10.64,10.64,0,0,0-7.22-.17c-.21.07-.43.15-.64.24a13.73,13.73,0,0,0-6.24,6c-3.17,5.42-4.7,13.48-4.09,21.58a37.86,37.86,0,0,0,1.76,9.19,17.58,17.58,0,0,1-6.33,1.38,2.5,2.5,0,0,0-2.09-1.12,2.56,2.56,0,0,0-1.44.45,2.51,2.51,0,0,0-1.06,2.05,2.5,2.5,0,0,0,2.5,2.5,2.5,2.5,0,0,0,2.26-1.43,19.28,19.28,0,0,0,5.69-1h0c.45-.15.89-.32,1.34-.5a20.18,20.18,0,0,0,4.11,6.29,2.63,2.63,0,0,0-.1.7,2.47,2.47,0,0,0,.74,1.77,2.49,2.49,0,0,0,4.26-1.75v0a2.51,2.51,0,0,0-2.5-2.51h-.08a2,2,0,0,0-.55.08,17.58,17.58,0,0,1-3.64-5.58,38.14,38.14,0,0,0,7.75-5.27c.34-.29.67-.59,1-.9h0c.79-.71,1.53-1.45,2.26-2.2h0c.17-.17.34-.35.5-.53h0c4.24-4.58,7.33-9.77,8.57-14.53,0-.11.05-.21.08-.32h0A13.5,13.5,0,0,0,411.18,184.12Zm-2.18,8a29.94,29.94,0,0,1-5,9.88h0c-.16.22-.33.45-.51.67-.34.46-.7.9-1.07,1.35h0a44.13,44.13,0,0,1-4.93,5,36.92,36.92,0,0,1-7,4.82c-.13-.4-.25-.8-.36-1.21h0a38,38,0,0,1-1.2-7.14c-.56-7.5.88-15.22,3.77-20.15a11.42,11.42,0,0,1,5-4.92,8.31,8.31,0,0,1,6.77.2,10.24,10.24,0,0,1,1.91,1.13,7.56,7.56,0,0,1,2.85,4.33h0a8.76,8.76,0,0,1,.27,2.16h0A14.24,14.24,0,0,1,409,192.14Zm-11.55,16.94a36.92,36.92,0,0,1-7,4.82c-.13-.4-.25-.8-.36-1.21l-2.36,5c.45-.15.89-.32,1.34-.5a20.18,20.18,0,0,0,4.11,6.29,2.63,2.63,0,0,0-.1.7,2.47,2.47,0,0,0,.74,1.77l.57-1.44c.18-.47.37-.95.56-1.43s.37-.93.55-1.4a2,2,0,0,0-.55.08,17.58,17.58,0,0,1-3.64-5.58,38.14,38.14,0,0,0,7.75-5.27c.34-.29.67-.59,1-.9h0l2.32-6A44.13,44.13,0,0,1,397.45,209.08Z"/></g></g></g></svg>